<?xml version="1.0" encoding="UTF-8" standalone="no"?>
<!-- Created with Inkscape (http://www.inkscape.org/) -->

<svg
   xmlns:dc="http://purl.org/dc/elements/1.1/"
   xmlns:cc="http://creativecommons.org/ns#"
   xmlns:rdf="http://www.w3.org/1999/02/22-rdf-syntax-ns#"
   xmlns:svg="http://www.w3.org/2000/svg"
   xmlns="http://www.w3.org/2000/svg"
   xmlns:sodipodi="http://sodipodi.sourceforge.net/DTD/sodipodi-0.dtd"
   xmlns:inkscape="http://www.inkscape.org/namespaces/inkscape"
   width="210mm"
   height="297mm"
   viewBox="0 0 744.09448819 1052.3622047"
   id="svg2"
   version="1.1"
   inkscape:version="0.91 r13725"
   sodipodi:docname="logo.svg">
  <defs
     id="defs4" />
  <sodipodi:namedview
     id="base"
     pagecolor="#ffffff"
     bordercolor="#666666"
     borderopacity="1.0"
     inkscape:pageopacity="0.0"
     inkscape:pageshadow="2"
     inkscape:zoom="0.35"
     inkscape:cx="-52.142857"
     inkscape:cy="457.14286"
     inkscape:document-units="px"
     inkscape:current-layer="layer1"
     showgrid="false"
     inkscape:window-width="1600"
     inkscape:window-height="837"
     inkscape:window-x="-8"
     inkscape:window-y="-8"
     inkscape:window-maximized="1" />
  <metadata
     id="metadata7">
    <rdf:RDF>
      <cc:Work
         rdf:about="">
        <dc:format>image/svg+xml</dc:format>
        <dc:type
           rdf:resource="http://purl.org/dc/dcmitype/StillImage" />
        <dc:title></dc:title>
      </cc:Work>
    </rdf:RDF>
  </metadata>
  <g
     inkscape:label="Layer 1"
     inkscape:groupmode="layer"
     id="layer1">
    <g
       id="g4324">
      <rect
         transform="matrix(0.95172551,-0.30695041,0.30695041,0.95172551,0,0)"
         rx="86.698341"
         y="222.34618"
         x="-75.806717"
         height="683.67828"
         width="512.75873"
         id="rect4147-9-2"
         style="fill:#ffffff;fill-opacity:1;stroke:#96ccd6;stroke-width:8.67000008;stroke-miterlimit:4;stroke-dasharray:none;stroke-opacity:1" />
      <rect
         transform="matrix(0.98814691,-0.15351116,0.15351116,0.98814691,0,0)"
         rx="86.698341"
         y="231.54994"
         x="63.500984"
         height="683.67828"
         width="512.75873"
         id="rect4147-9"
         style="fill:#ffffff;fill-opacity:1;stroke:#96ccd6;stroke-width:8.67000008;stroke-miterlimit:4;stroke-dasharray:none;stroke-opacity:1" />
      <path
         inkscape:connector-curvature="0"
         id="rect4147"
         d="m 282.0332,214.5226 c -48.03088,0 -86.69922,38.66834 -86.69922,86.69922 l 0,510.28125 c 0,48.03088 38.66834,86.69727 86.69922,86.69727 l 339.36133,0 c 48.03088,0 86.69922,-38.66639 86.69922,-86.69727 l 0,-510.28125 c 0,-48.03088 -38.66834,-86.69922 -86.69922,-86.69922 l -339.36133,0 z m 170.02149,172.81641 99.65234,0 c 13.583,0 16.93342,7.90801 7.48242,17.66601 l -106.35156,109.76368 76.3418,-1.69532 c 13.583,-0.303 16.47108,6.89041 6.45508,16.06641 l -82.79688,75.83594 c 0,0 10.73194,0.25468 23.96094,0.55468 13.241,0.3 15.31244,7.36158 4.64844,15.76758 l -125.9961,99.25977 c -10.674,8.406 -14.05678,5.5479 -7.55078,-6.3711 l 49.10938,-90.04882 -43.06055,0 c -13.583,0 -15.67888,-6.45988 -4.67188,-14.42188 l 78.1836,-56.61328 -73.51172,0 c -13.583,0 -18.98731,-9.47606 -12.07031,-21.16406 l 73.05468,-123.43555 c 6.918,-11.688 23.5381,-21.16406 37.1211,-21.16406 z"
         style="fill:#96ccd6;fill-opacity:1;stroke:#000000;stroke-width:0;stroke-miterlimit:4;stroke-dasharray:none;stroke-opacity:1" />
    </g>
  </g>
</svg>
